<mxfile host="app.diagrams.net" modified="2025-05-08T08:28:27.109Z" agent="Mozilla/5.0 (Macintosh; Intel Mac OS X 10_15_7) AppleWebKit/537.36 (KHTML, like Gecko) Chrome/135.0.0.0 Safari/537.36" version="24.6.5" etag="KdaRgIe8Qr7WebWRFA5A" type="github">
  <diagram name="Page-1" id="_mccxi7TgKMla4LwC_g2">
    <mxGraphModel>
      <root>
        <mxCell id="0" />
        <mxCell id="1" parent="0" />
      </root>
    </mxGraphModel>
  </diagram>
</mxfile>
